<svg xmlns="http://www.w3.org/2000/svg" width="1024" height="352"><path d="M554,196L623,231L567,141Z" fill="#77c837" stroke="#77c837" stroke-width="1.51"/><path d="M623,231L614,121L567,141Z" fill="#75c735" stroke="#75c735" stroke-width="1.51"/><path d="M623,231L672,150L614,121Z" fill="#77c937" stroke="#77c937" stroke-width="1.51"/><path d="M623,231L673,221L672,150Z" fill="#7bcc3b" stroke="#7bcc3b" stroke-width="1.51"/><path d="M623,231L607,277L673,221Z" fill="#7ed03d" stroke="#7ed03d" stroke-width="1.51"/><path d="M549,279L607,277L623,231Z" fill="#7ecf3e" stroke="#7ecf3e" stroke-width="1.51"/><path d="M614,121L561,50L567,141Z" fill="#70c130" stroke="#70c130" stroke-width="1.51"/><path d="M672,150L635,82L614,121Z" fill="#73c534" stroke="#73c534" stroke-width="1.51"/><path d="M554,196L549,279L623,231Z" fill="#7bcc3a" stroke="#7bcc3a" stroke-width="1.51"/><path d="M554,196L495,228L549,279Z" fill="#7acb39" stroke="#7acb39" stroke-width="1.51"/><path d="M457,153L495,228L554,196Z" fill="#74c633" stroke="#74c633" stroke-width="1.51"/><path d="M635,82L561,50L614,121Z" fill="#6ec030" stroke="#6ec030" stroke-width="1.51"/><path d="M567,141L457,153L554,196Z" fill="#73c432" stroke="#73c432" stroke-width="1.51"/><path d="M672,150L674,53L635,82Z" fill="#72c432" stroke="#72c432" stroke-width="1.51"/><path d="M635,82L634,7L561,50Z" fill="#6bbe2d" stroke="#6bbe2d" stroke-width="1.51"/><path d="M745,126L674,53L672,150Z" fill="#75c635" stroke="#75c635" stroke-width="1.51"/><path d="M561,50L494,84L567,141Z" fill="#6cbe2d" stroke="#6cbe2d" stroke-width="1.51"/><path d="M769,222L745,126L672,150Z" fill="#7acc3b" stroke="#7acc3b" stroke-width="1.51"/><path d="M494,84L457,153L567,141Z" fill="#6ec02f" stroke="#6ec02f" stroke-width="1.51"/><path d="M673,221L769,222L672,150Z" fill="#7dce3c" stroke="#7dce3c" stroke-width="1.51"/><path d="M607,277L710,295L673,221Z" fill="#81d240" stroke="#81d240" stroke-width="1.51"/><path d="M689,342L710,295L607,277Z" fill="#85d644" stroke="#85d644" stroke-width="1.51"/><path d="M748,273L769,222L673,221Z" fill="#82d341" stroke="#82d341" stroke-width="1.51"/><path d="M710,295L748,273L673,221Z" fill="#83d442" stroke="#83d442" stroke-width="1.51"/><path d="M549,279L631,348L607,277Z" fill="#82d341" stroke="#82d341" stroke-width="1.51"/><path d="M710,295L774,356L748,273Z" fill="#88d948" stroke="#88d948" stroke-width="1.51"/><path d="M674,53L634,7L635,82Z" fill="#6dbf2f" stroke="#6dbf2f" stroke-width="1.51"/><path d="M561,50L531,-2L494,84Z" fill="#68ba29" stroke="#68ba29" stroke-width="1.51"/><path d="M675,-15L634,7L674,53Z" fill="#6bbd2d" stroke="#6bbd2d" stroke-width="1.51"/><path d="M549,279L540,371L631,348Z" fill="#83d543" stroke="#83d543" stroke-width="1.51"/><path d="M495,228L462,283L549,279Z" fill="#7bcc3a" stroke="#7bcc3a" stroke-width="1.51"/><path d="M419,230L462,283L495,228Z" fill="#78c937" stroke="#78c937" stroke-width="1.51"/><path d="M745,126L759,80L674,53Z" fill="#73c534" stroke="#73c534" stroke-width="1.51"/><path d="M830,133L759,80L745,126Z" fill="#78ca39" stroke="#78ca39" stroke-width="1.51"/><path d="M631,348L689,342L607,277Z" fill="#85d745" stroke="#85d745" stroke-width="1.51"/><path d="M457,153L419,230L495,228Z" fill="#73c533" stroke="#73c533" stroke-width="1.51"/><path d="M634,7L531,-2L561,50Z" fill="#67ba2a" stroke="#67ba2a" stroke-width="1.51"/><path d="M494,84L414,84L457,153Z" fill="#6abd2b" stroke="#6abd2b" stroke-width="1.51"/><path d="M457,153L393,149L419,230Z" fill="#6fc12f" stroke="#6fc12f" stroke-width="1.51"/><path d="M462,351L540,371L549,279Z" fill="#81d341" stroke="#81d341" stroke-width="1.51"/><path d="M701,414L774,356L689,342Z" fill="#8dde4c" stroke="#8dde4c" stroke-width="1.51"/><path d="M419,230L422,265L462,283Z" fill="#77c937" stroke="#77c937" stroke-width="1.51"/><path d="M462,283L462,351L549,279Z" fill="#7dcf3d" stroke="#7dcf3d" stroke-width="1.51"/><path d="M634,7L606,-71L531,-2Z" fill="#64b728" stroke="#64b728" stroke-width="1.51"/><path d="M754,-21L675,-15L674,53Z" fill="#6bbe2f" stroke="#6bbe2f" stroke-width="1.51"/><path d="M458,-14L414,84L494,84Z" fill="#65b827" stroke="#65b827" stroke-width="1.51"/><path d="M414,84L393,149L457,153Z" fill="#6bbe2c" stroke="#6bbe2c" stroke-width="1.51"/><path d="M335,292L388,346L422,265Z" fill="#79cb3a" stroke="#79cb3a" stroke-width="1.51"/><path d="M388,346L462,351L462,283Z" fill="#7dcf3d" stroke="#7dcf3d" stroke-width="1.51"/><path d="M769,222L830,133L745,126Z" fill="#7dce3c" stroke="#7dce3c" stroke-width="1.51"/><path d="M759,80L754,-21L674,53Z" fill="#6fc132" stroke="#6fc132" stroke-width="1.51"/><path d="M849,220L830,133L769,222Z" fill="#80d240" stroke="#80d240" stroke-width="1.51"/><path d="M531,-2L458,-14L494,84Z" fill="#65b726" stroke="#65b726" stroke-width="1.51"/><path d="M477,-80L458,-14L531,-2Z" fill="#5fb223" stroke="#5fb223" stroke-width="1.51"/><path d="M845,273L849,220L769,222Z" fill="#85d645" stroke="#85d645" stroke-width="1.51"/><path d="M689,342L774,356L710,295Z" fill="#8adb49" stroke="#8adb49" stroke-width="1.51"/><path d="M701,414L689,342L631,348Z" fill="#8bdc4a" stroke="#8bdc4a" stroke-width="1.51"/><path d="M540,371L547,418L631,348Z" fill="#88d947" stroke="#88d947" stroke-width="1.51"/><path d="M494,435L547,418L540,371Z" fill="#88da48" stroke="#88da48" stroke-width="1.51"/><path d="M830,133L819,56L759,80Z" fill="#77c939" stroke="#77c939" stroke-width="1.51"/><path d="M845,273L769,222L748,273Z" fill="#85d745" stroke="#85d745" stroke-width="1.51"/><path d="M924,-17L816,-23L819,56Z" fill="#71c434" stroke="#71c434" stroke-width="1.51"/><path d="M819,56L754,-21L759,80Z" fill="#71c334" stroke="#71c334" stroke-width="1.51"/><path d="M675,-15L606,-71L634,7Z" fill="#66b829" stroke="#66b829" stroke-width="1.51"/><path d="M678,-81L606,-71L675,-15Z" fill="#63b628" stroke="#63b628" stroke-width="1.51"/><path d="M611,442L701,414L631,348Z" fill="#8dde4c" stroke="#8dde4c" stroke-width="1.51"/><path d="M774,356L845,273L748,273Z" fill="#8adb49" stroke="#8adb49" stroke-width="1.51"/><path d="M547,418L611,442L631,348Z" fill="#8bdc4a" stroke="#8bdc4a" stroke-width="1.51"/><path d="M754,-21L678,-81L675,-15Z" fill="#67ba2b" stroke="#67ba2b" stroke-width="1.51"/><path d="M462,351L494,435L540,371Z" fill="#85d745" stroke="#85d745" stroke-width="1.51"/><path d="M422,265L388,346L462,283Z" fill="#7acc3b" stroke="#7acc3b" stroke-width="1.51"/><path d="M335,292L422,265L419,230Z" fill="#76c836" stroke="#76c836" stroke-width="1.51"/><path d="M458,-14L408,-14L414,84Z" fill="#61b424" stroke="#61b424" stroke-width="1.51"/><path d="M414,84L322,141L393,149Z" fill="#69bc2a" stroke="#69bc2a" stroke-width="1.51"/><path d="M415,-83L408,-14L458,-14Z" fill="#5caf20" stroke="#5caf20" stroke-width="1.51"/><path d="M547,418L494,435L611,442Z" fill="#8bdd4b" stroke="#8bdd4b" stroke-width="1.51"/><path d="M406,420L494,435L462,351Z" fill="#85d745" stroke="#85d745" stroke-width="1.51"/><path d="M606,-71L531,-90L531,-2Z" fill="#60b224" stroke="#60b224" stroke-width="1.51"/><path d="M678,-81L531,-90L606,-71Z" fill="#5fb224" stroke="#5fb224" stroke-width="1.51"/><path d="M393,149L313,220L419,230Z" fill="#6fc130" stroke="#6fc130" stroke-width="1.51"/><path d="M328,56L322,141L414,84Z" fill="#65b827" stroke="#65b827" stroke-width="1.51"/><path d="M531,-90L477,-80L531,-2Z" fill="#5eb121" stroke="#5eb121" stroke-width="1.51"/><path d="M754,-21L766,-83L678,-81Z" fill="#66b92b" stroke="#66b92b" stroke-width="1.51"/><path d="M819,56L816,-23L754,-21Z" fill="#6fc132" stroke="#6fc132" stroke-width="1.51"/><path d="M900,71L819,56L830,133Z" fill="#78ca3a" stroke="#78ca3a" stroke-width="1.51"/><path d="M774,356L827,372L845,273Z" fill="#8edf4d" stroke="#8edf4d" stroke-width="1.51"/><path d="M782,440L827,372L774,356Z" fill="#92e351" stroke="#92e351" stroke-width="1.51"/><path d="M313,220L335,292L419,230Z" fill="#73c534" stroke="#73c534" stroke-width="1.51"/><path d="M322,141L313,220L393,149Z" fill="#6cbe2c" stroke="#6cbe2c" stroke-width="1.51"/><path d="M849,220L903,142L830,133Z" fill="#80d13f" stroke="#80d13f" stroke-width="1.51"/><path d="M924,193L903,142L849,220Z" fill="#83d543" stroke="#83d543" stroke-width="1.51"/><path d="M905,271L849,220L845,273Z" fill="#88da48" stroke="#88da48" stroke-width="1.51"/><path d="M322,141L259,208L313,220Z" fill="#6cbd2d" stroke="#6cbd2d" stroke-width="1.51"/><path d="M408,-14L328,56L414,84Z" fill="#62b424" stroke="#62b424" stroke-width="1.51"/><path d="M328,12L328,56L408,-14Z" fill="#5eb122" stroke="#5eb122" stroke-width="1.51"/><path d="M817,-67L766,-83L754,-21Z" fill="#68bb2d" stroke="#68bb2d" stroke-width="1.51"/><path d="M678,-81L766,-83L531,-90Z" fill="#61b426" stroke="#61b426" stroke-width="1.51"/><path d="M907,351L905,271L845,273Z" fill="#8dde4c" stroke="#8dde4c" stroke-width="1.51"/><path d="M388,346L406,420L462,351Z" fill="#81d341" stroke="#81d341" stroke-width="1.51"/><path d="M315,374L406,420L388,346Z" fill="#7fd141" stroke="#7fd141" stroke-width="1.51"/><path d="M903,142L900,71L830,133Z" fill="#7cce3d" stroke="#7cce3d" stroke-width="1.51"/><path d="M816,-23L817,-67L754,-21Z" fill="#6bbd2f" stroke="#6bbd2f" stroke-width="1.51"/><path d="M827,372L907,351L845,273Z" fill="#8fe04e" stroke="#8fe04e" stroke-width="1.51"/><path d="M701,414L782,440L774,356Z" fill="#91e251" stroke="#91e251" stroke-width="1.51"/><path d="M611,442L782,440L701,414Z" fill="#91e251" stroke="#91e251" stroke-width="1.51"/><path d="M905,271L924,193L849,220Z" fill="#87d847" stroke="#87d847" stroke-width="1.51"/><path d="M903,142L970,147L900,71Z" fill="#7ed03f" stroke="#7ed03f" stroke-width="1.51"/><path d="M316,-81L328,12L408,-14Z" fill="#5aad1e" stroke="#5aad1e" stroke-width="1.51"/><path d="M328,56L266,125L322,141Z" fill="#64b727" stroke="#64b727" stroke-width="1.51"/><path d="M899,-83L817,-67L816,-23Z" fill="#6bbe30" stroke="#6bbe30" stroke-width="1.51"/><path d="M531,-90L415,-83L477,-80Z" fill="#5aad1e" stroke="#5aad1e" stroke-width="1.51"/><path d="M477,-80L415,-83L458,-14Z" fill="#5bae1f" stroke="#5bae1f" stroke-width="1.51"/><path d="M252,77L266,125L328,56Z" fill="#62b424" stroke="#62b424" stroke-width="1.51"/><path d="M313,220L275,282L335,292Z" fill="#73c534" stroke="#73c534" stroke-width="1.51"/><path d="M335,292L315,374L388,346Z" fill="#7bcc3c" stroke="#7bcc3c" stroke-width="1.51"/><path d="M259,208L275,282L313,220Z" fill="#6fc130" stroke="#6fc130" stroke-width="1.51"/><path d="M850,429L907,351L827,372Z" fill="#94e553" stroke="#94e553" stroke-width="1.51"/><path d="M905,271L962,197L924,193Z" fill="#88d947" stroke="#88d947" stroke-width="1.51"/><path d="M266,125L259,208L322,141Z" fill="#68ba29" stroke="#68ba29" stroke-width="1.51"/><path d="M782,440L850,429L827,372Z" fill="#95e654" stroke="#95e654" stroke-width="1.51"/><path d="M266,351L315,374L335,292Z" fill="#79cb3b" stroke="#79cb3b" stroke-width="1.51"/><path d="M988,289L962,197L905,271Z" fill="#8bdd4b" stroke="#8bdd4b" stroke-width="1.51"/><path d="M924,193L970,147L903,142Z" fill="#82d442" stroke="#82d442" stroke-width="1.51"/><path d="M900,71L924,-17L819,56Z" fill="#76c738" stroke="#76c738" stroke-width="1.51"/><path d="M962,197L970,147L924,193Z" fill="#85d744" stroke="#85d744" stroke-width="1.51"/><path d="M266,125L196,158L259,208Z" fill="#67b929" stroke="#67b929" stroke-width="1.51"/><path d="M274,8L252,77L328,56Z" fill="#5eb121" stroke="#5eb121" stroke-width="1.51"/><path d="M274,8L328,56L328,12Z" fill="#5eb021" stroke="#5eb021" stroke-width="1.51"/><path d="M316,-81L274,8L328,12Z" fill="#59ac1d" stroke="#59ac1d" stroke-width="1.51"/><path d="M985,69L924,-17L900,71Z" fill="#78ca3a" stroke="#78ca3a" stroke-width="1.51"/><path d="M315,374L328,445L406,420Z" fill="#82d343" stroke="#82d343" stroke-width="1.51"/><path d="M275,282L266,351L335,292Z" fill="#76c838" stroke="#76c838" stroke-width="1.51"/><path d="M205,367L266,351L275,282Z" fill="#77c939" stroke="#77c939" stroke-width="1.51"/><path d="M173,273L275,282L259,208Z" fill="#6fc131" stroke="#6fc131" stroke-width="1.51"/><path d="M255,409L328,445L315,374Z" fill="#7fd141" stroke="#7fd141" stroke-width="1.51"/><path d="M406,420L328,445L494,435Z" fill="#86d847" stroke="#86d847" stroke-width="1.51"/><path d="M494,435L328,445L611,442Z" fill="#89db49" stroke="#89db49" stroke-width="1.51"/><path d="M907,351L988,289L905,271Z" fill="#8fe04f" stroke="#8fe04f" stroke-width="1.51"/><path d="M850,429L894,439L907,351Z" fill="#97e856" stroke="#97e856" stroke-width="1.51"/><path d="M782,440L894,439L850,429Z" fill="#98e957" stroke="#98e957" stroke-width="1.51"/><path d="M611,442L894,439L782,440Z" fill="#95e654" stroke="#95e654" stroke-width="1.51"/><path d="M415,-83L316,-81L408,-14Z" fill="#58ac1d" stroke="#58ac1d" stroke-width="1.51"/><path d="M205,-95L316,-81L415,-83Z" fill="#53a717" stroke="#53a717" stroke-width="1.51"/><path d="M924,-17L899,-83L816,-23Z" fill="#6ec133" stroke="#6ec133" stroke-width="1.51"/><path d="M817,-67L899,-83L766,-83Z" fill="#68bb2d" stroke="#68bb2d" stroke-width="1.51"/><path d="M766,-83L899,-83L531,-90Z" fill="#64b729" stroke="#64b729" stroke-width="1.51"/><path d="M970,147L985,69L900,71Z" fill="#7dcf3f" stroke="#7dcf3f" stroke-width="1.51"/><path d="M924,-17L968,-79L899,-83Z" fill="#6fc134" stroke="#6fc134" stroke-width="1.51"/><path d="M1036,86L985,69L970,147Z" fill="#7fd141" stroke="#7fd141" stroke-width="1.51"/><path d="M1061,197L1042,136L970,147Z" fill="#86d746" stroke="#86d746" stroke-width="1.51"/><path d="M992,340L988,289L907,351Z" fill="#93e452" stroke="#93e452" stroke-width="1.51"/><path d="M252,77L196,158L266,125Z" fill="#63b525" stroke="#63b525" stroke-width="1.51"/><path d="M184,55L196,158L252,77Z" fill="#60b223" stroke="#60b223" stroke-width="1.51"/><path d="M203,10L252,77L274,8Z" fill="#5bae1f" stroke="#5bae1f" stroke-width="1.51"/><path d="M1036,86L996,9L985,69Z" fill="#7cce3e" stroke="#7cce3e" stroke-width="1.51"/><path d="M978,431L992,340L907,351Z" fill="#97e856" stroke="#97e856" stroke-width="1.51"/><path d="M266,351L255,409L315,374Z" fill="#7cce3d" stroke="#7cce3d" stroke-width="1.51"/><path d="M205,367L255,409L266,351Z" fill="#7acc3d" stroke="#7acc3d" stroke-width="1.51"/><path d="M985,69L996,9L924,-17Z" fill="#77c93a" stroke="#77c93a" stroke-width="1.51"/><path d="M970,147L962,197L1061,197Z" fill="#87d846" stroke="#87d846" stroke-width="1.51"/><path d="M316,-81L262,-74L274,8Z" fill="#56a819" stroke="#56a819" stroke-width="1.51"/><path d="M196,158L174,214L259,208Z" fill="#68bb2a" stroke="#68bb2a" stroke-width="1.51"/><path d="M136,215L174,214L196,158Z" fill="#67b929" stroke="#67b929" stroke-width="1.51"/><path d="M262,-74L203,10L274,8Z" fill="#56aa1b" stroke="#56aa1b" stroke-width="1.51"/><path d="M1042,276L962,197L988,289Z" fill="#8ddf4d" stroke="#8ddf4d" stroke-width="1.51"/><path d="M203,10L184,55L252,77Z" fill="#5cae1f" stroke="#5cae1f" stroke-width="1.51"/><path d="M1042,136L1036,86L970,147Z" fill="#82d443" stroke="#82d443" stroke-width="1.51"/><path d="M173,273L205,367L275,282Z" fill="#73c535" stroke="#73c535" stroke-width="1.51"/><path d="M174,214L173,273L259,208Z" fill="#6cbe2e" stroke="#6cbe2e" stroke-width="1.51"/><path d="M1068,-74L968,-79L996,9Z" fill="#73c538" stroke="#73c538" stroke-width="1.51"/><path d="M996,9L968,-79L924,-17Z" fill="#72c437" stroke="#72c437" stroke-width="1.51"/><path d="M1046,342L1042,276L988,289Z" fill="#93e452" stroke="#93e452" stroke-width="1.51"/><path d="M894,439L978,431L907,351Z" fill="#98ea57" stroke="#98ea57" stroke-width="1.51"/><path d="M992,340L1046,342L988,289Z" fill="#94e554" stroke="#94e554" stroke-width="1.51"/><path d="M1042,276L1061,197L962,197Z" fill="#8cdd4b" stroke="#8cdd4b" stroke-width="1.51"/><path d="M1109,70L1060,-3L1036,86Z" fill="#7ed040" stroke="#7ed040" stroke-width="1.51"/><path d="M1042,276L1126,227L1061,197Z" fill="#8ee04e" stroke="#8ee04e" stroke-width="1.51"/><path d="M1044,435L1046,342L992,340Z" fill="#99eb58" stroke="#99eb58" stroke-width="1.51"/><path d="M174,214L136,215L173,273Z" fill="#6abc2d" stroke="#6abc2d" stroke-width="1.51"/><path d="M114,344L196,415L205,367Z" fill="#77c93a" stroke="#77c93a" stroke-width="1.51"/><path d="M99,158L136,215L196,158Z" fill="#64b727" stroke="#64b727" stroke-width="1.51"/><path d="M255,409L196,415L328,445Z" fill="#7fd141" stroke="#7fd141" stroke-width="1.51"/><path d="M205,367L196,415L255,409Z" fill="#7bcd3e" stroke="#7bcd3e" stroke-width="1.51"/><path d="M114,344L205,367L173,273Z" fill="#73c536" stroke="#73c536" stroke-width="1.51"/><path d="M262,-74L205,-95L203,10Z" fill="#53a617" stroke="#53a617" stroke-width="1.51"/><path d="M110,14L131,64L184,55Z" fill="#58ab1c" stroke="#58ab1c" stroke-width="1.51"/><path d="M184,55L131,64L196,158Z" fill="#5eb021" stroke="#5eb021" stroke-width="1.51"/><path d="M316,-81L205,-95L262,-74Z" fill="#51a516" stroke="#51a516" stroke-width="1.51"/><path d="M531,-90L205,-95L415,-83Z" fill="#56a91a" stroke="#56a91a" stroke-width="1.51"/><path d="M110,14L184,55L203,10Z" fill="#58aa1c" stroke="#58aa1c" stroke-width="1.51"/><path d="M1036,86L1060,-3L996,9Z" fill="#7bcd3d" stroke="#7bcd3d" stroke-width="1.51"/><path d="M1109,70L1036,86L1042,136Z" fill="#82d343" stroke="#82d343" stroke-width="1.51"/><path d="M978,431L1044,435L992,340Z" fill="#9bec5a" stroke="#9bec5a" stroke-width="1.51"/><path d="M1046,342L1101,292L1042,276Z" fill="#94e554" stroke="#94e554" stroke-width="1.51"/><path d="M894,439L1044,435L978,431Z" fill="#9dee5c" stroke="#9dee5c" stroke-width="1.51"/><path d="M131,64L99,158L196,158Z" fill="#60b223" stroke="#60b223" stroke-width="1.51"/><path d="M136,215L106,293L173,273Z" fill="#6cbe2f" stroke="#6cbe2f" stroke-width="1.51"/><path d="M1137,128L1109,70L1042,136Z" fill="#84d645" stroke="#84d645" stroke-width="1.51"/><path d="M1116,365L1101,292L1046,342Z" fill="#98e957" stroke="#98e957" stroke-width="1.51"/><path d="M48,271L106,293L136,215Z" fill="#6abc2d" stroke="#6abc2d" stroke-width="1.51"/><path d="M1137,128L1042,136L1061,197Z" fill="#88d948" stroke="#88d948" stroke-width="1.51"/><path d="M106,293L114,344L173,273Z" fill="#6fc132" stroke="#6fc132" stroke-width="1.51"/><path d="M1101,292L1126,227L1042,276Z" fill="#92e451" stroke="#92e451" stroke-width="1.51"/><path d="M136,-93L110,14L203,10Z" fill="#53a617" stroke="#53a617" stroke-width="1.51"/><path d="M131,64L57,59L99,158Z" fill="#5bae1e" stroke="#5bae1e" stroke-width="1.51"/><path d="M968,-79L1068,-74L899,-83Z" fill="#6fc134" stroke="#6fc134" stroke-width="1.51"/><path d="M1060,-3L1068,-74L996,9Z" fill="#77c83a" stroke="#77c83a" stroke-width="1.51"/><path d="M1103,0L1068,-74L1060,-3Z" fill="#78c93c" stroke="#78c93c" stroke-width="1.51"/><path d="M1109,70L1103,0L1060,-3Z" fill="#7cce3f" stroke="#7cce3f" stroke-width="1.51"/><path d="M1136,-56L1103,0L1109,70Z" fill="#7ccd3f" stroke="#7ccd3f" stroke-width="1.51"/><path d="M1126,227L1137,128L1061,197Z" fill="#8bdd4b" stroke="#8bdd4b" stroke-width="1.51"/><path d="M1126,227L1116,365L1137,128Z" fill="#92e351" stroke="#92e351" stroke-width="1.51"/><path d="M1101,292L1116,365L1126,227Z" fill="#96e755" stroke="#96e755" stroke-width="1.51"/><path d="M1044,435L1116,365L1046,342Z" fill="#9ced5b" stroke="#9ced5b" stroke-width="1.51"/><path d="M205,-95L136,-93L203,10Z" fill="#50a415" stroke="#50a415" stroke-width="1.51"/><path d="M110,14L57,59L131,64Z" fill="#56a91b" stroke="#56a91b" stroke-width="1.51"/><path d="M37,193L48,271L136,215Z" fill="#66b829" stroke="#66b829" stroke-width="1.51"/><path d="M106,293L45,371L114,344Z" fill="#71c334" stroke="#71c334" stroke-width="1.51"/><path d="M43,12L57,59L110,14Z" fill="#54a718" stroke="#54a718" stroke-width="1.51"/><path d="M1044,435L1111,432L1116,365Z" fill="#a0f15e" stroke="#a0f15e" stroke-width="1.51"/><path d="M1116,365L1111,432L1137,128Z" fill="#97e856" stroke="#97e856" stroke-width="1.51"/><path d="M37,193L136,215L99,158Z" fill="#63b626" stroke="#63b626" stroke-width="1.51"/><path d="M196,415L105,442L328,445Z" fill="#7ed040" stroke="#7ed040" stroke-width="1.51"/><path d="M114,344L105,442L196,415Z" fill="#78ca3b" stroke="#78ca3b" stroke-width="1.51"/><path d="M54,412L105,442L114,344Z" fill="#76c83a" stroke="#76c83a" stroke-width="1.51"/><path d="M34,138L37,193L99,158Z" fill="#60b222" stroke="#60b222" stroke-width="1.51"/><path d="M57,59L34,138L99,158Z" fill="#5caf1f" stroke="#5caf1f" stroke-width="1.51"/><path d="M1137,128L1136,-56L1109,70Z" fill="#80d242" stroke="#80d242" stroke-width="1.51"/><path d="M1103,0L1136,-56L1068,-74Z" fill="#77c93b" stroke="#77c93b" stroke-width="1.51"/><path d="M57,59L-14,53L34,138Z" fill="#57aa1b" stroke="#57aa1b" stroke-width="1.51"/><path d="M34,-73L43,12L110,14Z" fill="#4fa314" stroke="#4fa314" stroke-width="1.51"/><path d="M-21,339L45,371L48,271Z" fill="#6dc031" stroke="#6dc031" stroke-width="1.51"/><path d="M48,271L45,371L106,293Z" fill="#6ec032" stroke="#6ec032" stroke-width="1.51"/><path d="M-27,220L48,271L37,193Z" fill="#64b628" stroke="#64b628" stroke-width="1.51"/><path d="M45,371L54,412L114,344Z" fill="#73c537" stroke="#73c537" stroke-width="1.51"/><path d="M136,-93L34,-73L110,14Z" fill="#4da112" stroke="#4da112" stroke-width="1.51"/><path d="M43,12L-14,53L57,59Z" fill="#53a717" stroke="#53a717" stroke-width="1.51"/><path d="M-12,-23L-14,53L43,12Z" fill="#50a314" stroke="#50a314" stroke-width="1.51"/><path d="M-28,144L-27,220L37,193Z" fill="#5fb222" stroke="#5fb222" stroke-width="1.51"/><path d="M45,371L-16,443L54,412Z" fill="#75c639" stroke="#75c639" stroke-width="1.51"/><path d="M-28,144L37,193L34,138Z" fill="#5db021" stroke="#5db021" stroke-width="1.51"/><path d="M-14,53L-28,144L34,138Z" fill="#58ac1c" stroke="#58ac1c" stroke-width="1.51"/><path d="M-46,302L-21,339L48,271Z" fill="#6abc2e" stroke="#6abc2e" stroke-width="1.51"/><path d="M-14,53L-81,126L-28,144Z" fill="#57aa1a" stroke="#57aa1a" stroke-width="1.51"/><path d="M34,-73L-12,-23L43,12Z" fill="#4da111" stroke="#4da111" stroke-width="1.51"/><path d="M-27,220L-46,302L48,271Z" fill="#66b82a" stroke="#66b82a" stroke-width="1.51"/><path d="M-89,292L-46,302L-27,220Z" fill="#65b82a" stroke="#65b82a" stroke-width="1.51"/><path d="M-117,195L-27,220L-28,144Z" fill="#5db021" stroke="#5db021" stroke-width="1.51"/><path d="M-113,52L-81,126L-14,53Z" fill="#52a617" stroke="#52a617" stroke-width="1.51"/><path d="M34,-73L-21,-56L-12,-23Z" fill="#499e0e" stroke="#499e0e" stroke-width="1.51"/><path d="M-93,422L-16,443L-21,339Z" fill="#71c336" stroke="#71c336" stroke-width="1.51"/><path d="M-21,339L-16,443L45,371Z" fill="#71c336" stroke="#71c336" stroke-width="1.51"/><path d="M54,412L-16,443L105,442Z" fill="#77ca3c" stroke="#77ca3c" stroke-width="1.51"/><path d="M105,442L-16,443L328,445Z" fill="#7ccd40" stroke="#7ccd40" stroke-width="1.51"/><path d="M-82,5L-14,53L-12,-23Z" fill="#4ea213" stroke="#4ea213" stroke-width="1.51"/><path d="M-46,302L-114,342L-21,339Z" fill="#69bc2f" stroke="#69bc2f" stroke-width="1.51"/><path d="M-117,195L-89,292L-27,220Z" fill="#61b325" stroke="#61b325" stroke-width="1.51"/><path d="M-81,126L-117,195L-28,144Z" fill="#59ac1d" stroke="#59ac1d" stroke-width="1.51"/><path d="M-21,-56L-82,5L-12,-23Z" fill="#4a9e0f" stroke="#4a9e0f" stroke-width="1.51"/><path d="M-113,52L-117,195L-81,126Z" fill="#56a91a" stroke="#56a91a" stroke-width="1.51"/><path d="M-82,5L-113,52L-14,53Z" fill="#4fa314" stroke="#4fa314" stroke-width="1.51"/><path d="M-117,195L-114,342L-89,292Z" fill="#63b628" stroke="#63b628" stroke-width="1.51"/><path d="M-89,292L-114,342L-46,302Z" fill="#67ba2d" stroke="#67ba2d" stroke-width="1.51"/><path d="M-114,342L-93,422L-21,339Z" fill="#6dbf32" stroke="#6dbf32" stroke-width="1.51"/><path d="M-82,5L-91,-74L-113,52Z" fill="#4a9e0e" stroke="#4a9e0e" stroke-width="1.51"/><path d="M-21,-56L-91,-74L-82,5Z" fill="#489c0c" stroke="#489c0c" stroke-width="1.51"/><path d="M34,-73L-91,-74L-21,-56Z" fill="#479b0b" stroke="#479b0b" stroke-width="1.51"/><path d="M136,-93L-91,-74L34,-73Z" fill="#489c0c" stroke="#489c0c" stroke-width="1.51"/></svg>