<svg xmlns="http://www.w3.org/2000/svg" width="2048" height="500"><path d="M930,269L971,138L788,109Z" fill="#565656" stroke="#565656" stroke-width="1.51"/><path d="M788,109L769,266L930,269Z" fill="#575757" stroke="#575757" stroke-width="1.51"/><path d="M788,109L694,248L769,266Z" fill="#555555" stroke="#555555" stroke-width="1.51"/><path d="M961,-58L801,-61L788,109Z" fill="#4e4e4e" stroke="#4e4e4e" stroke-width="1.51"/><path d="M1131,281L1061,86L971,138Z" fill="#595959" stroke="#595959" stroke-width="1.51"/><path d="M788,109L662,100L694,248Z" fill="#535353" stroke="#535353" stroke-width="1.51"/><path d="M676,-66L662,100L788,109Z" fill="#4e4e4e" stroke="#4e4e4e" stroke-width="1.51"/><path d="M769,266L814,411L930,269Z" fill="#5c5c5c" stroke="#5c5c5c" stroke-width="1.51"/><path d="M677,385L814,411L769,266Z" fill="#5c5c5c" stroke="#5c5c5c" stroke-width="1.51"/><path d="M961,-58L788,109L971,138Z" fill="#525252" stroke="#525252" stroke-width="1.51"/><path d="M1061,86L961,-58L971,138Z" fill="#535353" stroke="#535353" stroke-width="1.51"/><path d="M814,411L982,429L930,269Z" fill="#5f5f5f" stroke="#5f5f5f" stroke-width="1.51"/><path d="M930,269L1131,281L971,138Z" fill="#5b5b5b" stroke="#5b5b5b" stroke-width="1.51"/><path d="M1058,419L1131,281L930,269Z" fill="#5f5f5f" stroke="#5f5f5f" stroke-width="1.51"/><path d="M694,248L677,385L769,266Z" fill="#595959" stroke="#595959" stroke-width="1.51"/><path d="M554,274L677,385L694,248Z" fill="#585858" stroke="#585858" stroke-width="1.51"/><path d="M982,429L1058,419L930,269Z" fill="#616161" stroke="#616161" stroke-width="1.51"/><path d="M801,-61L676,-66L788,109Z" fill="#4d4d4d" stroke="#4d4d4d" stroke-width="1.51"/><path d="M800,-150L676,-66L801,-61Z" fill="#494949" stroke="#494949" stroke-width="1.51"/><path d="M1061,86L1098,-47L961,-58Z" fill="#525252" stroke="#525252" stroke-width="1.51"/><path d="M1206,77L1098,-47L1061,86Z" fill="#545454" stroke="#545454" stroke-width="1.51"/><path d="M662,100L554,274L694,248Z" fill="#535353" stroke="#535353" stroke-width="1.51"/><path d="M489,86L554,274L662,100Z" fill="#505050" stroke="#505050" stroke-width="1.51"/><path d="M961,-58L800,-150L801,-61Z" fill="#4b4b4b" stroke="#4b4b4b" stroke-width="1.51"/><path d="M975,-196L800,-150L961,-58Z" fill="#4a4a4a" stroke="#4a4a4a" stroke-width="1.51"/><path d="M982,429L988,500L1058,419Z" fill="#646464" stroke="#646464" stroke-width="1.51"/><path d="M814,411L988,500L982,429Z" fill="#636363" stroke="#636363" stroke-width="1.51"/><path d="M775,575L988,500L814,411Z" fill="#646464" stroke="#646464" stroke-width="1.51"/><path d="M1131,281L1205,252L1061,86Z" fill="#5c5c5c" stroke="#5c5c5c" stroke-width="1.51"/><path d="M1267,357L1205,252L1131,281Z" fill="#616161" stroke="#616161" stroke-width="1.51"/><path d="M1267,357L1131,281L1058,419Z" fill="#626262" stroke="#626262" stroke-width="1.51"/><path d="M1205,252L1206,77L1061,86Z" fill="#595959" stroke="#595959" stroke-width="1.51"/><path d="M677,385L655,502L814,411Z" fill="#5f5f5f" stroke="#5f5f5f" stroke-width="1.51"/><path d="M554,274L535,370L677,385Z" fill="#595959" stroke="#595959" stroke-width="1.51"/><path d="M1098,-47L975,-196L961,-58Z" fill="#4d4d4d" stroke="#4d4d4d" stroke-width="1.51"/><path d="M1099,-194L975,-196L1098,-47Z" fill="#4c4c4c" stroke="#4c4c4c" stroke-width="1.51"/><path d="M535,370L655,502L677,385Z" fill="#5d5d5d" stroke="#5d5d5d" stroke-width="1.51"/><path d="M492,-31L489,86L662,100Z" fill="#4b4b4b" stroke="#4b4b4b" stroke-width="1.51"/><path d="M554,274L410,354L535,370Z" fill="#575757" stroke="#575757" stroke-width="1.51"/><path d="M676,-66L492,-31L662,100Z" fill="#4a4a4a" stroke="#4a4a4a" stroke-width="1.51"/><path d="M800,-150L647,-162L676,-66Z" fill="#474747" stroke="#474747" stroke-width="1.51"/><path d="M975,-196L647,-162L800,-150Z" fill="#474747" stroke="#474747" stroke-width="1.51"/><path d="M655,502L775,575L814,411Z" fill="#626262" stroke="#626262" stroke-width="1.51"/><path d="M535,-143L492,-31L676,-66Z" fill="#474747" stroke="#474747" stroke-width="1.51"/><path d="M1381,89L1275,-19L1206,77Z" fill="#585858" stroke="#585858" stroke-width="1.51"/><path d="M1134,569L1267,357L1058,419Z" fill="#666666" stroke="#666666" stroke-width="1.51"/><path d="M1210,-187L1099,-194L1098,-47Z" fill="#4e4e4e" stroke="#4e4e4e" stroke-width="1.51"/><path d="M1206,77L1275,-19L1098,-47Z" fill="#545454" stroke="#545454" stroke-width="1.51"/><path d="M1356,258L1206,77L1205,252Z" fill="#5d5d5d" stroke="#5d5d5d" stroke-width="1.51"/><path d="M647,-162L535,-143L676,-66Z" fill="#464646" stroke="#464646" stroke-width="1.51"/><path d="M988,500L1134,569L1058,419Z" fill="#676767" stroke="#676767" stroke-width="1.51"/><path d="M1067,679L1134,569L988,500Z" fill="#6b6b6b" stroke="#6b6b6b" stroke-width="1.51"/><path d="M775,575L920,663L988,500Z" fill="#686868" stroke="#686868" stroke-width="1.51"/><path d="M1267,357L1356,258L1205,252Z" fill="#626262" stroke="#626262" stroke-width="1.51"/><path d="M1412,415L1356,258L1267,357Z" fill="#656565" stroke="#656565" stroke-width="1.51"/><path d="M353,280L410,354L554,274Z" fill="#555555" stroke="#555555" stroke-width="1.51"/><path d="M535,370L525,540L655,502Z" fill="#5e5e5e" stroke="#5e5e5e" stroke-width="1.51"/><path d="M655,502L633,668L775,575Z" fill="#656565" stroke="#656565" stroke-width="1.51"/><path d="M775,575L801,716L920,663Z" fill="#6b6b6b" stroke="#6b6b6b" stroke-width="1.51"/><path d="M353,280L554,274L489,86Z" fill="#515151" stroke="#515151" stroke-width="1.51"/><path d="M1275,-19L1210,-187L1098,-47Z" fill="#515151" stroke="#515151" stroke-width="1.51"/><path d="M410,354L525,540L535,370Z" fill="#5b5b5b" stroke="#5b5b5b" stroke-width="1.51"/><path d="M492,-31L371,85L489,86Z" fill="#4a4a4a" stroke="#4a4a4a" stroke-width="1.51"/><path d="M357,-17L371,85L492,-31Z" fill="#484848" stroke="#484848" stroke-width="1.51"/><path d="M1275,-19L1385,-188L1210,-187Z" fill="#505050" stroke="#505050" stroke-width="1.51"/><path d="M1356,258L1381,89L1206,77Z" fill="#5c5c5c" stroke="#5c5c5c" stroke-width="1.51"/><path d="M410,354L407,564L525,540Z" fill="#5d5d5d" stroke="#5d5d5d" stroke-width="1.51"/><path d="M371,85L353,280L489,86Z" fill="#4e4e4e" stroke="#4e4e4e" stroke-width="1.51"/><path d="M1381,89L1367,-4L1275,-19Z" fill="#585858" stroke="#585858" stroke-width="1.51"/><path d="M920,663L1067,679L988,500Z" fill="#6b6b6b" stroke="#6b6b6b" stroke-width="1.51"/><path d="M1134,569L1278,539L1267,357Z" fill="#6a6a6a" stroke="#6a6a6a" stroke-width="1.51"/><path d="M633,668L801,716L775,575Z" fill="#696969" stroke="#696969" stroke-width="1.51"/><path d="M920,663L801,716L1067,679Z" fill="#6e6e6e" stroke="#6e6e6e" stroke-width="1.51"/><path d="M1252,648L1278,539L1134,569Z" fill="#6e6e6e" stroke="#6e6e6e" stroke-width="1.51"/><path d="M525,540L633,668L655,502Z" fill="#636363" stroke="#636363" stroke-width="1.51"/><path d="M371,85L273,214L353,280Z" fill="#4e4e4e" stroke="#4e4e4e" stroke-width="1.51"/><path d="M416,-173L357,-17L492,-31Z" fill="#444444" stroke="#444444" stroke-width="1.51"/><path d="M535,-143L416,-173L492,-31Z" fill="#444444" stroke="#444444" stroke-width="1.51"/><path d="M647,-162L416,-173L535,-143Z" fill="#434343" stroke="#434343" stroke-width="1.51"/><path d="M240,-204L416,-173L647,-162Z" fill="#414141" stroke="#414141" stroke-width="1.51"/><path d="M1356,258L1510,281L1381,89Z" fill="#616161" stroke="#616161" stroke-width="1.51"/><path d="M1278,539L1412,415L1267,357Z" fill="#696969" stroke="#696969" stroke-width="1.51"/><path d="M262,528L407,564L410,354Z" fill="#5b5b5b" stroke="#5b5b5b" stroke-width="1.51"/><path d="M252,78L273,214L371,85Z" fill="#4a4a4a" stroke="#4a4a4a" stroke-width="1.51"/><path d="M525,540L549,703L633,668Z" fill="#656565" stroke="#656565" stroke-width="1.51"/><path d="M221,428L410,354L353,280Z" fill="#555555" stroke="#555555" stroke-width="1.51"/><path d="M1278,539L1413,564L1412,415Z" fill="#6d6d6d" stroke="#6d6d6d" stroke-width="1.51"/><path d="M1067,679L1252,648L1134,569Z" fill="#6f6f6f" stroke="#6f6f6f" stroke-width="1.51"/><path d="M407,564L549,703L525,540Z" fill="#626262" stroke="#626262" stroke-width="1.51"/><path d="M633,668L549,703L801,716Z" fill="#696969" stroke="#696969" stroke-width="1.51"/><path d="M357,-17L252,78L371,85Z" fill="#484848" stroke="#484848" stroke-width="1.51"/><path d="M234,-5L252,78L357,-17Z" fill="#464646" stroke="#464646" stroke-width="1.51"/><path d="M1210,-187L1385,-188L1099,-194Z" fill="#4d4d4d" stroke="#4d4d4d" stroke-width="1.51"/><path d="M1367,-4L1385,-188L1275,-19Z" fill="#545454" stroke="#545454" stroke-width="1.51"/><path d="M1501,-49L1385,-188L1367,-4Z" fill="#555555" stroke="#555555" stroke-width="1.51"/><path d="M1501,-49L1367,-4L1381,89Z" fill="#585858" stroke="#585858" stroke-width="1.51"/><path d="M1412,415L1510,281L1356,258Z" fill="#666666" stroke="#666666" stroke-width="1.51"/><path d="M1499,382L1510,281L1412,415Z" fill="#686868" stroke="#686868" stroke-width="1.51"/><path d="M1494,514L1499,382L1412,415Z" fill="#6b6b6b" stroke="#6b6b6b" stroke-width="1.51"/><path d="M114,376L221,428L273,214Z" fill="#525252" stroke="#525252" stroke-width="1.51"/><path d="M240,-204L234,-5L357,-17Z" fill="#424242" stroke="#424242" stroke-width="1.51"/><path d="M1372,642L1413,564L1278,539Z" fill="#707070" stroke="#707070" stroke-width="1.51"/><path d="M1548,93L1501,-49L1381,89Z" fill="#5b5b5b" stroke="#5b5b5b" stroke-width="1.51"/><path d="M1633,-18L1548,93L1707,130Z" fill="#5f5f5f" stroke="#5f5f5f" stroke-width="1.51"/><path d="M1510,281L1548,93L1381,89Z" fill="#606060" stroke="#606060" stroke-width="1.51"/><path d="M1252,648L1372,642L1278,539Z" fill="#707070" stroke="#707070" stroke-width="1.51"/><path d="M1491,649L1372,642L1252,648Z" fill="#737373" stroke="#737373" stroke-width="1.51"/><path d="M1491,649L1252,648L1067,679Z" fill="#727272" stroke="#727272" stroke-width="1.51"/><path d="M407,564L369,655L549,703Z" fill="#636363" stroke="#636363" stroke-width="1.51"/><path d="M262,528L369,655L407,564Z" fill="#5f5f5f" stroke="#5f5f5f" stroke-width="1.51"/><path d="M273,214L221,428L353,280Z" fill="#525252" stroke="#525252" stroke-width="1.51"/><path d="M86,280L273,214L69,111Z" fill="#4c4c4c" stroke="#4c4c4c" stroke-width="1.51"/><path d="M221,428L262,528L410,354Z" fill="#585858" stroke="#585858" stroke-width="1.51"/><path d="M1491,649L1494,514L1413,564Z" fill="#727272" stroke="#727272" stroke-width="1.51"/><path d="M1413,564L1494,514L1412,415Z" fill="#6e6e6e" stroke="#6e6e6e" stroke-width="1.51"/><path d="M1666,224L1548,93L1510,281Z" fill="#636363" stroke="#636363" stroke-width="1.51"/><path d="M1633,-18L1533,-141L1501,-49Z" fill="#575757" stroke="#575757" stroke-width="1.51"/><path d="M1501,-49L1533,-141L1385,-188Z" fill="#535353" stroke="#535353" stroke-width="1.51"/><path d="M416,-173L240,-204L357,-17Z" fill="#414141" stroke="#414141" stroke-width="1.51"/><path d="M975,-196L240,-204L647,-162Z" fill="#434343" stroke="#434343" stroke-width="1.51"/><path d="M1372,642L1491,649L1413,564Z" fill="#737373" stroke="#737373" stroke-width="1.51"/><path d="M1666,224L1510,281L1690,369Z" fill="#686868" stroke="#686868" stroke-width="1.51"/><path d="M1778,697L1491,649L1067,679Z" fill="#767676" stroke="#767676" stroke-width="1.51"/><path d="M234,-5L112,-3L252,78Z" fill="#454545" stroke="#454545" stroke-width="1.51"/><path d="M240,-204L112,-3L234,-5Z" fill="#414141" stroke="#414141" stroke-width="1.51"/><path d="M221,428L69,533L262,528Z" fill="#595959" stroke="#595959" stroke-width="1.51"/><path d="M262,528L198,717L369,655Z" fill="#606060" stroke="#606060" stroke-width="1.51"/><path d="M86,280L114,376L273,214Z" fill="#4f4f4f" stroke="#4f4f4f" stroke-width="1.51"/><path d="M1548,93L1633,-18L1501,-49Z" fill="#5b5b5b" stroke="#5b5b5b" stroke-width="1.51"/><path d="M1510,281L1499,382L1690,369Z" fill="#696969" stroke="#696969" stroke-width="1.51"/><path d="M69,111L273,214L252,78Z" fill="#494949" stroke="#494949" stroke-width="1.51"/><path d="M1690,369L1499,382L1675,521Z" fill="#6d6d6d" stroke="#6d6d6d" stroke-width="1.51"/><path d="M112,-3L69,111L252,78Z" fill="#464646" stroke="#464646" stroke-width="1.51"/><path d="M1633,-18L1631,-160L1533,-141Z" fill="#565656" stroke="#565656" stroke-width="1.51"/><path d="M1533,-141L1631,-160L1385,-188Z" fill="#535353" stroke="#535353" stroke-width="1.51"/><path d="M1778,-65L1631,-160L1633,-18Z" fill="#595959" stroke="#595959" stroke-width="1.51"/><path d="M1784,230L1707,130L1666,224Z" fill="#656565" stroke="#656565" stroke-width="1.51"/><path d="M1666,224L1707,130L1548,93Z" fill="#626262" stroke="#626262" stroke-width="1.51"/><path d="M1675,521L1499,382L1494,514Z" fill="#6f6f6f" stroke="#6f6f6f" stroke-width="1.51"/><path d="M69,533L221,428L114,376Z" fill="#555555" stroke="#555555" stroke-width="1.51"/><path d="M75,643L198,717L262,528Z" fill="#5f5f5f" stroke="#5f5f5f" stroke-width="1.51"/><path d="M369,655L198,717L549,703Z" fill="#646464" stroke="#646464" stroke-width="1.51"/><path d="M549,703L198,717L801,716Z" fill="#676767" stroke="#676767" stroke-width="1.51"/><path d="M240,-204L102,-211L112,-3Z" fill="#3e3e3e" stroke="#3e3e3e" stroke-width="1.51"/><path d="M-24,68L-27,220L69,111Z" fill="#464646" stroke="#464646" stroke-width="1.51"/><path d="M975,-196L102,-211L240,-204Z" fill="#404040" stroke="#404040" stroke-width="1.51"/><path d="M1920,-218L102,-211L975,-196Z" fill="#484848" stroke="#484848" stroke-width="1.51"/><path d="M1652,644L1675,521L1494,514Z" fill="#737373" stroke="#737373" stroke-width="1.51"/><path d="M-55,401L69,533L114,376Z" fill="#535353" stroke="#535353" stroke-width="1.51"/><path d="M-55,401L114,376L86,280Z" fill="#515151" stroke="#515151" stroke-width="1.51"/><path d="M-24,68L69,111L112,-3Z" fill="#444444" stroke="#444444" stroke-width="1.51"/><path d="M69,111L-27,220L86,280Z" fill="#4a4a4a" stroke="#4a4a4a" stroke-width="1.51"/><path d="M-42,2L-24,68L112,-3Z" fill="#424242" stroke="#424242" stroke-width="1.51"/><path d="M1491,649L1652,644L1494,514Z" fill="#747474" stroke="#747474" stroke-width="1.51"/><path d="M1778,697L1652,644L1491,649Z" fill="#797979" stroke="#797979" stroke-width="1.51"/><path d="M1836,395L1784,230L1690,369Z" fill="#6c6c6c" stroke="#6c6c6c" stroke-width="1.51"/><path d="M1690,369L1784,230L1666,224Z" fill="#696969" stroke="#696969" stroke-width="1.51"/><path d="M1707,130L1778,-65L1633,-18Z" fill="#5d5d5d" stroke="#5d5d5d" stroke-width="1.51"/><path d="M1836,395L1690,369L1675,521Z" fill="#707070" stroke="#707070" stroke-width="1.51"/><path d="M-54,553L75,643L69,533Z" fill="#5a5a5a" stroke="#5a5a5a" stroke-width="1.51"/><path d="M69,533L75,643L262,528Z" fill="#5b5b5b" stroke="#5b5b5b" stroke-width="1.51"/><path d="M-24,68L-162,223L-27,220Z" fill="#474747" stroke="#474747" stroke-width="1.51"/><path d="M-42,-190L-42,2L112,-3Z" fill="#3e3e3e" stroke="#3e3e3e" stroke-width="1.51"/><path d="M1826,127L1778,-65L1707,130Z" fill="#616161" stroke="#616161" stroke-width="1.51"/><path d="M-27,220L-55,401L86,280Z" fill="#4d4d4d" stroke="#4d4d4d" stroke-width="1.51"/><path d="M-162,223L-55,401L-27,220Z" fill="#4c4c4c" stroke="#4c4c4c" stroke-width="1.51"/><path d="M1948,92L1826,127L1985,266Z" fill="#686868" stroke="#686868" stroke-width="1.51"/><path d="M1784,230L1826,127L1707,130Z" fill="#656565" stroke="#656565" stroke-width="1.51"/><path d="M-225,74L-162,223L-24,68Z" fill="#444444" stroke="#444444" stroke-width="1.51"/><path d="M102,-211L-42,-190L112,-3Z" fill="#3c3c3c" stroke="#3c3c3c" stroke-width="1.51"/><path d="M1851,564L1836,395L1675,521Z" fill="#737373" stroke="#737373" stroke-width="1.51"/><path d="M1925,-60L1806,-157L1778,-65Z" fill="#5b5b5b" stroke="#5b5b5b" stroke-width="1.51"/><path d="M1778,-65L1806,-157L1631,-160Z" fill="#585858" stroke="#585858" stroke-width="1.51"/><path d="M1631,-160L1920,-218L1385,-188Z" fill="#545454" stroke="#545454" stroke-width="1.51"/><path d="M-55,401L-54,553L69,533Z" fill="#565656" stroke="#565656" stroke-width="1.51"/><path d="M-55,401L-177,554L-54,553Z" fill="#545454" stroke="#545454" stroke-width="1.51"/><path d="M-163,-20L-24,68L-42,2Z" fill="#404040" stroke="#404040" stroke-width="1.51"/><path d="M1652,644L1778,697L1675,521Z" fill="#787878" stroke="#787878" stroke-width="1.51"/><path d="M801,716L1778,697L1067,679Z" fill="#737373" stroke="#737373" stroke-width="1.51"/><path d="M-42,-190L-163,-20L-42,2Z" fill="#3d3d3d" stroke="#3d3d3d" stroke-width="1.51"/><path d="M1985,266L1826,127L1784,230Z" fill="#686868" stroke="#686868" stroke-width="1.51"/><path d="M1778,697L1851,564L1675,521Z" fill="#787878" stroke="#787878" stroke-width="1.51"/><path d="M1826,127L1925,-60L1778,-65Z" fill="#5f5f5f" stroke="#5f5f5f" stroke-width="1.51"/><path d="M1985,266L1784,230L1836,395Z" fill="#6c6c6c" stroke="#6c6c6c" stroke-width="1.51"/><path d="M1948,92L1925,-60L1826,127Z" fill="#626262" stroke="#626262" stroke-width="1.51"/><path d="M-163,-20L-225,74L-24,68Z" fill="#404040" stroke="#404040" stroke-width="1.51"/><path d="M-177,554L-91,718L-54,553Z" fill="#595959" stroke="#595959" stroke-width="1.51"/><path d="M75,643L-91,718L198,717Z" fill="#5f5f5f" stroke="#5f5f5f" stroke-width="1.51"/><path d="M198,717L-91,718L801,716Z" fill="#656565" stroke="#656565" stroke-width="1.51"/><path d="M-54,553L-91,718L75,643Z" fill="#5b5b5b" stroke="#5b5b5b" stroke-width="1.51"/><path d="M-177,554L-55,401L-233,361Z" fill="#515151" stroke="#515151" stroke-width="1.51"/><path d="M102,-211L-181,-178L-42,-190Z" fill="#393939" stroke="#393939" stroke-width="1.51"/><path d="M-42,-190L-181,-178L-163,-20Z" fill="#3a3a3a" stroke="#3a3a3a" stroke-width="1.51"/><path d="M-163,-20L-181,-178L-225,74Z" fill="#3c3c3c" stroke="#3c3c3c" stroke-width="1.51"/><path d="M-233,361L-55,401L-162,223Z" fill="#4c4c4c" stroke="#4c4c4c" stroke-width="1.51"/><path d="M1977,373L1985,266L1836,395Z" fill="#6f6f6f" stroke="#6f6f6f" stroke-width="1.51"/><path d="M2085,-195L1920,-218L1925,-60Z" fill="#5a5a5a" stroke="#5a5a5a" stroke-width="1.51"/><path d="M-225,74L-233,361L-162,223Z" fill="#474747" stroke="#474747" stroke-width="1.51"/><path d="M2136,-63L1925,-60L1948,92Z" fill="#616161" stroke="#616161" stroke-width="1.51"/><path d="M1925,-60L1920,-218L1806,-157Z" fill="#5a5a5a" stroke="#5a5a5a" stroke-width="1.51"/><path d="M1806,-157L1920,-218L1631,-160Z" fill="#575757" stroke="#575757" stroke-width="1.51"/><path d="M1385,-188L1920,-218L1099,-194Z" fill="#505050" stroke="#505050" stroke-width="1.51"/><path d="M1099,-194L1920,-218L975,-196Z" fill="#4e4e4e" stroke="#4e4e4e" stroke-width="1.51"/><path d="M1941,571L1836,395L1851,564Z" fill="#767676" stroke="#767676" stroke-width="1.51"/><path d="M1941,571L1977,373L1836,395Z" fill="#747474" stroke="#747474" stroke-width="1.51"/><path d="M1988,684L1941,571L1851,564Z" fill="#7b7b7b" stroke="#7b7b7b" stroke-width="1.51"/><path d="M-233,361L-227,655L-177,554Z" fill="#535353" stroke="#535353" stroke-width="1.51"/><path d="M-177,554L-227,655L-91,718Z" fill="#595959" stroke="#595959" stroke-width="1.51"/><path d="M2093,254L1985,266L1977,373Z" fill="#6f6f6f" stroke="#6f6f6f" stroke-width="1.51"/><path d="M2093,254L2086,112L1985,266Z" fill="#6c6c6c" stroke="#6c6c6c" stroke-width="1.51"/><path d="M1985,266L2086,112L1948,92Z" fill="#696969" stroke="#696969" stroke-width="1.51"/><path d="M2135,356L2093,254L1977,373Z" fill="#717171" stroke="#717171" stroke-width="1.51"/><path d="M1941,571L2097,512L1977,373Z" fill="#777777" stroke="#777777" stroke-width="1.51"/><path d="M1778,697L1988,684L1851,564Z" fill="#7c7c7c" stroke="#7c7c7c" stroke-width="1.51"/><path d="M2136,-63L2085,-195L1925,-60Z" fill="#5e5e5e" stroke="#5e5e5e" stroke-width="1.51"/><path d="M2136,-63L1948,92L2086,112Z" fill="#656565" stroke="#656565" stroke-width="1.51"/><path d="M2102,672L2097,512L1941,571Z" fill="#7c7c7c" stroke="#7c7c7c" stroke-width="1.51"/><path d="M2097,512L2135,356L1977,373Z" fill="#757575" stroke="#757575" stroke-width="1.51"/><path d="M2279,132L2223,-45L2086,112Z" fill="#686868" stroke="#686868" stroke-width="1.51"/><path d="M2223,-45L2136,-63L2086,112Z" fill="#646464" stroke="#646464" stroke-width="1.51"/><path d="M1988,684L2102,672L1941,571Z" fill="#7e7e7e" stroke="#7e7e7e" stroke-width="1.51"/><path d="M2097,512L2228,408L2135,356Z" fill="#777777" stroke="#777777" stroke-width="1.51"/><path d="M2136,-63L2220,-155L2085,-195Z" fill="#5e5e5e" stroke="#5e5e5e" stroke-width="1.51"/><path d="M2257,251L2086,112L2093,254Z" fill="#6d6d6d" stroke="#6d6d6d" stroke-width="1.51"/><path d="M2257,251L2093,254L2135,356Z" fill="#717171" stroke="#717171" stroke-width="1.51"/><path d="M2210,507L2228,408L2097,512Z" fill="#7a7a7a" stroke="#7a7a7a" stroke-width="1.51"/><path d="M2102,672L2210,507L2097,512Z" fill="#7d7d7d" stroke="#7d7d7d" stroke-width="1.51"/><path d="M2263,692L2257,251L2228,408Z" fill="#7a7a7a" stroke="#7a7a7a" stroke-width="1.51"/><path d="M2228,408L2257,251L2135,356Z" fill="#747474" stroke="#747474" stroke-width="1.51"/><path d="M2223,-45L2220,-155L2136,-63Z" fill="#616161" stroke="#616161" stroke-width="1.51"/><path d="M2279,132L2220,-155L2223,-45Z" fill="#656565" stroke="#656565" stroke-width="1.51"/><path d="M2263,692L2279,132L2257,251Z" fill="#767676" stroke="#767676" stroke-width="1.51"/><path d="M2257,251L2279,132L2086,112Z" fill="#6d6d6d" stroke="#6d6d6d" stroke-width="1.51"/><path d="M2210,507L2263,692L2228,408Z" fill="#7d7d7d" stroke="#7d7d7d" stroke-width="1.51"/><path d="M2102,672L2263,692L2210,507Z" fill="#818181" stroke="#818181" stroke-width="1.51"/><path d="M1988,684L2263,692L2102,672Z" fill="#828282" stroke="#828282" stroke-width="1.51"/><path d="M1778,697L2263,692L1988,684Z" fill="#808080" stroke="#808080" stroke-width="1.51"/><path d="M801,716L2263,692L1778,697Z" fill="#7a7a7a" stroke="#7a7a7a" stroke-width="1.51"/></svg>